<?xml version="1.0" standalone="no"?><!DOCTYPE svg PUBLIC "-//W3C//DTD SVG 1.1//EN" "http://www.w3.org/Graphics/SVG/1.1/DTD/svg11.dtd"><svg t="1550720008882" class="icon" style="" viewBox="0 0 1024 1024" version="1.1" xmlns="http://www.w3.org/2000/svg" p-id="6894" xmlns:xlink="http://www.w3.org/1999/xlink" width="64" height="64"><defs><style type="text/css"></style></defs><path d="M639.872128 214.825175l0-43.945388-41.942058 0 0 43.945388 41.942058 0zM426.06993 214.825175l0-43.945388-41.942058 0 0 43.945388 41.942058 0zM661.866134 92.920413q105.878122 75.91342 105.878122 205.788878l-511.488511 0q0-131.878788 103.917416-205.788878l-55.965368-55.965368q-15.984016-15.984016 0-29.964702t29.964702 0l63.936064 63.936064q51.958708-27.961372 113.891442-27.961372 59.929404 0 111.888112 27.961372l63.936064-63.936064q15.984016-13.980686 29.964702 0t0 29.964702zM873.622378 342.697303q25.958042 0 44.968365 18.967699t18.967699 44.968365l0 297.686314q0 27.961372-18.967699 45.948718t-44.968365 17.987346-44.968365-17.987346-18.967699-45.948718l0-297.686314q0-25.958042 18.967699-44.968365t44.968365-18.967699zM150.377622 342.697303q25.958042 0 44.968365 18.967699t18.967699 44.968365l0 297.686314q0 27.961372-18.967699 45.948718t-44.968365 17.987346-44.968365-17.987346-18.967699-45.948718l0-297.686314q0-25.958042 18.967699-44.968365t44.968365-18.967699zM256.255744 768.255744l0-425.558442 511.488511 0 0 425.558442q0 17.987346-11.977356 29.964702t-29.964702 11.977356l-43.945388 0 0 149.866134q0 27.961372-18.967699 45.948718t-44.968365 17.987346-44.968365-17.987346-18.967699-45.948718l0-149.866134-83.92674 0 0 149.866134q0 27.961372-18.967699 45.948718t-44.968365 17.987346-44.968365-17.987346-18.967699-45.948718l0-149.866134-43.945388 0q-17.987346 0-29.964702-11.977356t-11.977356-29.964702z" p-id="6895" fill="#3a8df3"></path></svg>