<?xml version="1.0" standalone="no"?><!DOCTYPE svg PUBLIC "-//W3C//DTD SVG 1.1//EN" "http://www.w3.org/Graphics/SVG/1.1/DTD/svg11.dtd"><svg t="1550281670408" class="icon" style="" viewBox="0 0 1024 1024" version="1.1" xmlns="http://www.w3.org/2000/svg" p-id="6747" xmlns:xlink="http://www.w3.org/1999/xlink" width="64" height="64"><defs><style type="text/css"></style></defs><path d="M813.6704 470.528a290.816 290.816 0 0 0-554.496-99.1232 217.5488 217.5488 0 0 0-9.8304 428.1344 149.1456 149.1456 0 0 0 37.0176 4.352h505.4976a167.8336 167.8336 0 0 0 167.7824-167.7824 170.6496 170.6496 0 0 0-145.9712-165.5808z m-45.6704 44.6464a26.2656 26.2656 0 0 0 19.6096 7.6288h4.352a113.3056 113.3056 0 1 1 0 226.6112H287.488a114.3808 114.3808 0 0 1-26.1632-3.2768 164.1984 164.1984 0 0 1 19.6096-324.6592 27.3408 27.3408 0 0 0 22.8864-17.408 237.3632 237.3632 0 0 1 458.6496 84.992v3.2768a25.2928 25.2928 0 0 0 5.4272 22.8864z" p-id="6748" fill="#1296db"></path><path d="M595.8144 495.5648l-64.3072-64.256-1.0752-1.2288c-1.0752 0-1.0752-1.0752-2.2016-1.0752s-1.0752-1.0752-2.2016-1.0752-1.0752-1.0752-2.2016-1.0752-1.0752 0-2.2016-1.0752h-13.0048c-1.0752 0-1.0752 0-2.2016 1.0752a1.0752 1.0752 0 0 0-1.0752 1.0752c-1.0752 0-1.0752 1.0752-2.2016 1.0752l-1.0752 1.0752c-1.0752 0-1.0752 1.0752-2.2016 1.0752L435.6608 495.5648a21.5552 21.5552 0 0 0 30.72 30.72l27.2384-27.2384v126.3616a21.8112 21.8112 0 1 0 43.5712 0V498.8416l27.2384 27.2384a21.0432 21.0432 0 0 0 30.72 0 20.48 20.48 0 0 0 0.6656-30.5152z" p-id="6749" fill="#1296db"></path></svg>